<svg width="141" height="36" viewBox="0 0 141 36" fill="none" xmlns="http://www.w3.org/2000/svg">
<path d="M0.625 3.70888C0.625 1.96849 2.03587 0.557617 3.77626 0.557617L4.6166 0.557617C6.35699 0.557617 7.76786 1.96849 7.76786 3.70888C7.76786 5.44928 6.35699 6.86015 4.6166 6.86015H3.77626C2.03587 6.86015 0.625 5.44928 0.625 3.70888Z" fill="white"/>
<path d="M1.21324 13.7509C1.21324 12.3586 2.34193 11.2299 3.73425 11.2299H4.65862C6.05093 11.2299 7.17963 12.3586 7.17963 13.7509V32.9106C7.17963 34.3029 6.05093 35.4316 4.65862 35.4316H3.73424C2.34193 35.4316 1.21324 34.3029 1.21324 32.9106V13.7509Z" fill="white"/>
<path d="M92.1354 6.27244C92.1354 5.205 93.0008 4.33966 94.0682 4.33966C95.1357 4.33966 96.001 5.205 96.001 6.27244V11.7339H101.421C102.279 11.7339 102.975 12.4299 102.975 13.2885C102.975 14.1471 102.279 14.8432 101.421 14.8432H96.001V27.1128C95.987 27.9953 96.1187 30.0623 96.9254 30.7681C97.9338 31.6504 98.9842 32.1967 100.749 32.1967C102.514 32.1967 103.312 32.5748 103.312 33.7933C103.312 35.0958 102.472 35.3059 100.959 35.3059C99.4464 35.3059 95.959 34.9698 94.2363 33.163C92.5136 31.3563 92.2195 28.9614 92.2195 28.6672C92.2195 28.5656 92.2038 28.3373 92.186 28.078C92.1625 27.7374 92.1355 27.3435 92.1354 27.1128C92.1354 27.1127 92.1354 27.1129 92.1354 27.1128V14.8432H88.8158C87.9572 14.8432 87.2612 14.1471 87.2612 13.2885C87.2612 12.4299 87.9572 11.7339 88.8158 11.7339H92.1354V6.27244Z" fill="white"/>
<path d="M38.5226 10.4987C38.5248 8.94706 38.8198 7.02506 39.6571 6.10409C40.5814 4.92761 42.3041 4.33938 44.0688 4.33938C45.8335 4.33938 46.6319 3.87719 46.6319 2.6587C46.6319 1.35618 45.8335 1.23013 44.3209 1.23013C42.8083 1.23013 39.2369 1.35618 36.8419 4.04526C35.1192 5.85198 34.7411 8.66711 34.7411 8.96123C34.7411 9.06292 34.7254 9.29122 34.7076 9.55049C34.6855 9.87135 34.6602 10.2396 34.6573 10.4741H34.6571V11.7338H31.1694C30.3108 11.7338 29.6147 12.4298 29.6147 13.2884C29.6147 14.147 30.3108 14.8431 31.1694 14.8431H34.6571V33.4153C34.6571 34.4827 35.5224 35.348 36.5898 35.348C37.6573 35.348 38.5226 34.4827 38.5226 33.4153V14.8431H43.9425C44.8011 14.8431 45.4971 14.147 45.4971 13.2884C45.4971 12.4298 44.8011 11.7338 43.9425 11.7338H38.5226V10.4987Z" fill="white"/>
<path d="M19.784 10.4985C19.7861 8.94676 20.0811 7.0244 20.9184 6.1033C21.8428 4.92683 23.5655 4.3386 25.3302 4.3386C27.0949 4.3386 27.8932 3.87641 27.8932 2.65792C27.8932 1.3554 27.0949 1.22935 25.5823 1.22935C24.0697 1.22935 20.4983 1.3554 18.1033 4.04448C16.3806 5.8512 16.0025 8.66633 16.0025 8.96045C16.0025 9.06214 15.9868 9.29044 15.969 9.54971C15.9469 9.8704 15.9216 10.2385 15.9187 10.4729H15.9184V11.7331H12.4307C11.5721 11.7331 10.8761 12.4291 10.8761 13.2877C10.8761 14.1463 11.5721 14.8423 12.4307 14.8423H15.9184V33.4141C15.9184 34.4816 16.7838 35.3469 17.8512 35.3469C18.9187 35.3469 19.784 34.4816 19.784 33.4141V14.8423H25.2039C26.0625 14.8423 26.7585 14.1463 26.7585 13.2877C26.7585 12.4291 26.0625 11.7331 25.2039 11.7331H19.784V10.4985Z" fill="white"/>
<path d="M73.2285 11.2295C72.1611 11.2295 71.2957 12.0948 71.2957 13.1623V33.5399C71.2957 34.538 72.1049 35.3472 73.1031 35.3472H73.354C74.3521 35.3472 75.1613 34.538 75.1613 33.5399V21.1395C75.3166 20.1433 75.8575 18.2016 76.9671 16.8598C78.4329 15.0871 80.4243 14.9186 82.0211 14.7835C82.3924 14.7521 82.7424 14.7225 83.0595 14.6749C84.7402 14.4228 84.8242 13.6245 84.8242 12.9522C84.8242 12.28 84.7822 11.2295 83.1436 11.2295C81.5049 11.2295 80.4965 11.4816 78.5637 12.2379C77.0185 12.8426 75.6523 14.6726 75.1613 15.5556V13.1623C75.1613 12.0948 74.296 11.2295 73.2285 11.2295Z" fill="white"/>
<path fill-rule="evenodd" clip-rule="evenodd" d="M57.0114 35.4319C65.0371 35.4319 68.1038 29.4235 68.1038 23.289C68.1038 15.0537 63.1376 11.1461 57.0114 11.1461C49.1814 11.1461 45.9189 17.0705 45.9189 23.289C45.9189 31.3983 50.8852 35.4319 57.0114 35.4319ZM57.0111 32.2384C62.1792 32.2384 64.154 28.2315 64.154 23.2888C64.154 16.8299 60.956 14.3392 57.0111 14.3392C51.9691 14.3392 49.8683 18.346 49.8683 23.2888C49.8683 29.7055 53.0662 32.2384 57.0111 32.2384Z" fill="white"/>
<path d="M109.455 32.3059C109.455 30.5655 110.866 29.1546 112.606 29.1546H113.447C115.187 29.1546 116.598 30.5655 116.598 32.3059C116.598 34.0463 115.187 35.4572 113.447 35.4572H112.606C110.866 35.4572 109.455 34.0463 109.455 32.3059Z" fill="white"/>
<path d="M119.255 34.6603L125.891 19.9144H128.587L135.244 34.6603H132.379L126.67 21.3679H127.766L122.078 34.6603H119.255ZM122.31 31.2477L123.047 29.099H131.01L131.747 31.2477H122.31Z" fill="white"/>
<path d="M137.962 34.6603V19.9144H140.701V34.6603H137.962Z" fill="white"/>
</svg>
